<svg width="25" height="25" viewBox="0 0 25 25" fill="none" xmlns="http://www.w3.org/2000/svg">
<path d="M12.5 25C19.4036 25 25 19.4036 25 12.5C25 5.59644 19.4036 0 12.5 0C5.59644 0 0 5.59644 0 12.5C0 19.4036 5.59644 25 12.5 25Z" fill="#4D76A1"/>
<path fill-rule="evenodd" clip-rule="evenodd" d="M12.0278 17.9824H13.0089C13.0089 17.9824 13.3052 17.9499 13.4565 17.7867C13.5958 17.637 13.5913 17.3558 13.5913 17.3558C13.5913 17.3558 13.5722 16.0394 14.1832 15.8455C14.7855 15.6545 15.5589 17.1178 16.3787 17.6805C16.9986 18.1063 17.4696 18.0129 17.4696 18.0129L19.6615 17.9824C19.6615 17.9824 20.8082 17.9118 20.2645 17.0102C20.2199 16.9365 19.9479 16.3433 18.6348 15.1244C17.2604 13.8488 17.4444 14.0551 19.1 11.8485C20.1083 10.5046 20.5114 9.68419 20.3855 9.33279C20.2654 8.99811 19.5238 9.08657 19.5238 9.08657L17.0558 9.10195C17.0558 9.10195 16.8729 9.07699 16.7372 9.1581C16.6046 9.23765 16.5193 9.42304 16.5193 9.42304C16.5193 9.42304 16.1286 10.463 15.6077 11.3473C14.5087 13.2135 14.0693 13.312 13.8897 13.1961C13.4719 12.9261 13.5762 12.1112 13.5762 11.5323C13.5762 9.72385 13.8505 8.96981 13.0421 8.77462C12.7738 8.70978 12.5764 8.66699 11.8903 8.66009C11.0097 8.65095 10.2644 8.66276 9.84232 8.86954C9.56157 9.00702 9.34498 9.31341 9.47689 9.33101C9.64 9.35285 10.0094 9.43061 10.2053 9.69733C10.4582 10.0414 10.4493 10.8141 10.4493 10.8141C10.4493 10.8141 10.5946 12.943 10.1099 13.2075C9.77726 13.3889 9.32091 13.0185 8.34116 11.3255C7.83913 10.4583 7.46011 9.49969 7.46011 9.49969C7.46011 9.49969 7.38702 9.32054 7.25667 9.22472C7.09847 9.10863 6.87742 9.07164 6.87742 9.07164L4.5322 9.08702C4.5322 9.08702 4.18013 9.09682 4.0509 9.2499C3.93592 9.38605 4.04176 9.6677 4.04176 9.6677C4.04176 9.6677 5.87783 13.9633 7.95678 16.128C9.86305 18.1127 12.0278 17.9824 12.0278 17.9824Z" fill="white"/>
</svg>
