<svg width="25" height="25" viewBox="0 0 25 25" fill="none" xmlns="http://www.w3.org/2000/svg">
<g clip-path="url(#clip0_40_156)">
<path d="M12.5 25C19.4035 25 24.9998 19.4036 24.9998 12.5002C24.9998 5.59677 19.4035 0.000427246 12.5 0.000427246C5.59659 0.000427246 0.000244141 5.59677 0.000244141 12.5002C0.000244141 19.4036 5.59659 25 12.5 25Z" fill="#CB2027"/>
<path d="M13.509 16.7387C12.5641 16.6656 12.167 16.197 11.4259 15.7471C11.0186 17.8842 10.5208 19.9328 9.0464 21.003C8.59073 17.773 9.71441 15.347 10.2363 12.7718C9.34676 11.2745 10.3432 8.26059 12.2194 9.00326C14.5284 9.91637 10.2202 14.5709 13.1124 15.1522C16.1319 15.7592 17.3645 9.91303 15.4919 8.01148C12.7864 5.26611 7.61678 7.94909 8.25249 11.8792C8.40735 12.84 9.40024 13.1317 8.64911 14.4575C6.91757 14.074 6.40107 12.7083 6.46748 10.8876C6.57465 7.90742 9.14533 5.82071 11.7238 5.53194C14.9848 5.16696 18.0454 6.72937 18.4679 9.79672C18.9432 13.2587 16.9957 17.0079 13.509 16.7387Z" fill="#F1F2F2"/>
</g>
<defs>
<clipPath id="clip0_40_156">
<rect width="25" height="25" fill="white"/>
</clipPath>
</defs>
</svg>
